<svg width="267" height="267" viewBox="0 0 267 267" fill="none" xmlns="http://www.w3.org/2000/svg">
<g clip-path="url(#clip0_24_490)">
<path d="M89.1602 63.3086C91.4775 61.9707 94.3325 61.9685 96.6515 63.3035L228.466 139.197C230.789 140.534 232.222 143.01 232.223 145.691C232.225 148.372 230.795 150.85 228.474 152.191L96.4775 228.399C94.1559 229.739 91.2948 229.738 88.974 228.396C86.6533 227.054 85.2253 224.576 85.2284 221.895L85.4101 69.7937L85.4156 69.5436C85.5046 66.9646 86.9153 64.6048 89.1602 63.3086Z" fill="#DDF247" stroke="#E9E9E9" stroke-width="14.9983" stroke-linejoin="round"/>
<path d="M101.07 119.325L133.951 100.42L101.943 160.377L162.681 123.919L108.954 192.918L189.43 144.349" stroke="black" stroke-width="7.49915" stroke-linejoin="bevel"/>
</g>
<defs>
<clipPath id="clip0_24_490">
<rect width="194.978" height="194.978" fill="white" transform="translate(0 97.489) rotate(-30)"/>
</clipPath>
</defs>
</svg>
