<svg width="203" height="122" viewBox="0 0 203 122" fill="none" xmlns="http://www.w3.org/2000/svg">
<path fill-rule="evenodd" clip-rule="evenodd" d="M21.9026 5.68005L132.453 5.65449L128.543 23.9173L199.308 23.901L180.415 115.541L90.7364 115.562L95.6225 91.755L3.00837 91.7764L21.9026 5.68005ZM107.152 24.4488L99.4026 24.4488L96.102 43.3278C93.9495 39.5088 90.075 37.5633 84.4784 37.5633C80.8192 37.5633 77.5186 38.5721 74.5051 40.4456C71.4916 42.319 69.1238 44.9852 67.4018 48.2998C65.6798 51.6145 64.8188 55.3614 64.8188 59.3967C64.8188 62.4231 65.3928 65.1612 66.6843 67.6112C67.9758 70.0611 69.7696 71.9346 72.0656 73.3037C74.3616 74.6728 76.9446 75.3213 79.9582 75.3213C82.3977 75.3213 84.6219 74.889 86.631 73.9522C88.5682 73.0155 90.2185 71.7185 91.6535 70.0611L91.7252 74.889L98.2545 74.889L107.152 24.4488ZM88.2812 66.7465C86.344 68.1156 84.1197 68.7641 81.6084 68.7641C78.8819 68.7641 76.6576 67.8994 75.0791 66.098C73.5006 64.2966 72.7114 61.7025 72.7114 58.3878C72.7114 56.082 73.2136 53.7762 74.2181 51.6144C75.2226 49.4527 76.7294 47.6513 78.6666 46.2822C80.5322 44.9131 82.7564 44.1925 85.3394 44.1925C88.066 44.1925 90.2185 45.1293 91.797 46.8587C93.3755 48.6601 94.2365 51.1821 94.2365 54.4967C94.2365 56.8746 93.6625 59.1805 92.658 61.3422C91.6535 63.576 90.1467 65.3774 88.2812 66.7465ZM53.0209 39.4367C50.6531 38.2118 47.9266 37.5633 44.7696 37.5633C40.6081 37.5633 36.9488 38.5721 33.8635 40.4456C30.7782 42.319 28.4105 44.9131 26.7602 48.1557C25.1099 51.4703 24.3207 55.0732 24.3207 59.0364C24.3207 62.2069 24.9664 65.0171 26.3297 67.4671C27.693 69.917 29.6302 71.8626 32.2132 73.2317C34.7963 74.6728 37.738 75.3213 41.1821 75.3213C45.5588 75.3213 49.2899 74.2405 52.4469 71.9346C55.5322 69.7009 57.6129 66.5303 58.6892 62.4951L50.9401 62.4951C49.9356 64.6568 48.7159 66.3142 47.2809 67.395C45.8458 68.4759 43.8368 68.9803 41.3256 68.9803C38.4555 68.9803 36.2313 68.1156 34.581 66.2421C32.859 64.3686 32.0697 62.2069 32.0697 59.6128C32.0697 59.1084 32.0697 58.6761 32.1415 58.2437L59.6937 58.2437C60.1242 56.5144 60.3394 54.5688 60.3394 52.4071C60.3394 49.5248 59.6937 46.9307 58.4739 44.6969C57.1824 42.4632 55.3887 40.7338 53.0209 39.4367ZM52.2316 52.4071L33.3613 52.4071C34.007 49.8851 35.2985 47.7954 37.3075 46.2101C39.2448 44.6249 41.5408 43.8322 44.1956 43.8323C46.6351 43.8323 48.6441 44.5528 50.0791 45.8499C51.5141 47.1469 52.3034 49.0204 52.3034 51.3983C52.3034 51.6515 52.2788 51.8801 52.2584 52.0694C52.2439 52.2033 52.2316 52.3175 52.2316 52.4071ZM134.771 72.944L120.083 41.2886L136.309 40.9362L145.658 61.3604L162.422 40.6694L178.37 40.5064L152.49 72.7629L168.032 105.902L151.618 106.07L141.602 84.2533L123.64 106.356L107.785 106.518L134.771 72.944Z" fill="#4D4D4D"/>
</svg>
